<svg width="400" height="400" xmlns="http://www.w3.org/2000/svg"><g style="fill:#000"><path style="opacity:1;fill:#fff;fill-opacity:1;stroke:none;stroke-width:1.26767px;stroke-linecap:butt;stroke-linejoin:miter;stroke-opacity:1" d="M243.706-235.477a54.244 54.244 0 0 0-5.785.82c-4.78.925-9.247 2.367-13.265 4.31-1.37.662-2.672 1.36-3.84 2.226-.349.257-.694.53-.97.861-.146.158-.313.393-.234.59-.033-.21.171-.35.332-.49.325-.252.694-.431 1.08-.613 1.287-.6 2.627-1.029 4.066-1.467 4.196-1.273 8.58-2.223 13.26-2.929a90.314 90.314 0 0 1 5.582-.667c3.443-.297 6.823-.346 10.154-.023 5.358.537 10.146 2.032 13.93 4.957-3.057-3.714-7.966-6.207-13.626-7.178-3.491-.61-7.084-.704-10.684-.397zM244.254-215.732c-.69.01-1.381.06-2.072.152-5.004.717-8.756 4.103-9.893 7.852 3.229-1.91 6.879-2.906 10.389-3.082.55-.036 1.1-.059 1.656-.07 4.289-.088 8.948.47 13.308.459-3.244-2.958-7.9-5.383-13.388-5.31z" transform="translate(24.35 423.29)"/><path style="opacity:1;fill:#fff;fill-opacity:1;stroke:none;stroke-width:1.26767px;stroke-linecap:butt;stroke-linejoin:miter;stroke-opacity:1" d="M240.566-204.674c-1.344-.589-2.517-1.089-3.818-1.729a21.937 21.937 0 0 1-2.413-1.301c-.215-.13-.448-.303-.697-.435-.08-.083-.315-.156-.393-.06.122.008.074.168.127.261.043.254.057.509.116.794a7.339 7.339 0 0 0 1.328 2.964c1.045 1.39 2.478 2.492 4.08 3.225 3.133 1.434 6.436 1.305 9.195.375-2.421-1.78-4.981-2.978-7.525-4.094zM250.028-209.395c-1.506-1.162-3.344-1.12-4.825-.473.942 1.356 2.082 2.28 2.84 2.938l.035.03c.24.298.576.315.7.417.215.097.297.473.283.964a29.19 29.19 0 0 0-.134.88c.298-.017.607-.068.925-.152.566-.213 1.121-.704 1.384-1.592.182-1.235-.331-2.392-1.142-2.96a4.614 4.614 0 0 0-.066-.052z" transform="translate(24.35 423.29)"/><path style="opacity:1;fill:#fff;fill-opacity:1;stroke:none;stroke-width:1.26767;stroke-opacity:1" d="M277.071-219.529c.43-.62.88-1.254 1.36-1.88 1.21-1.046 2.23-2.314 3.05-3.766-1.669-.06-3.412.22-5.101.796a8.38 8.38 0 0 0-2.468 2.286c-1.927 2.675-2.068 6.008-.723 8.347 1.058-1.648 3.066-4.608 3.882-5.783zM287.165-186.233c.364.767.722 1.535 1.075 2.306 2.352 5.217 4.457 9.992 5.125 15.103.337 2.48.385 4.906-.685 7.066-.546.69-1.086 1.387-1.622 2.09a97.577 97.577 0 0 0 2.289-1.505c1.815-1.931 2.714-4.806 2.913-7.725.393-5.784-1.267-11.556-3.629-16.975a70.743 70.743 0 0 0-1.097-2.43c-4.637-9.772-11.255-18.04-17.671-24.323 4.311 9.073 8.991 17.32 13.302 26.393zM284.416-159.667c-.682.03-1.367.115-2.062.264-.942.198-1.966.493-2.939.97-.285.143-.622.3-.904.52a1.064 1.064 0 0 0-.239.223c-.05.057-.064.148-.03.193.033-.045.091-.03.121-.014.071.024.127.079.204.12.271.167.49.363.761.53.879.578 1.817 1.047 2.902 1.312a8.154 8.154 0 0 0 2.38.245c2.475-.113 4.862-1.378 6.071-3.46-2.268-.565-4.213-.991-6.265-.903zM273.334-89.534a25.626 25.626 0 0 0-.633-5.234c-.741-3.342-2.038-6.399-3.723-9.008-.57-.885-1.182-1.724-1.87-2.466a5.738 5.738 0 0 0-.646-.617 1.248 1.248 0 0 0-.214-.144c-.035-.02-.09-.043-.128-.025.041.002.06.043.086.075.044.065.074.136.106.21.109.26.182.525.26.804.263.943.45 1.882.65 2.882a92.342 92.342 0 0 1 1.324 8.961 63.59 63.59 0 0 1 .275 4.638c.038 1.969-.046 3.892-.32 5.78a25.434 25.434 0 0 1-4.125 10.718c3.488-1.692 6.623-5.17 8.041-9.819.661-2.183.952-4.47.917-6.755zM236.827-71.715a139.78 139.78 0 0 0-7.134 1.084c-4.563.818-8.925 1.809-13.034 3.139-1.299.42-2.566.856-3.768 1.418-.327.153-.667.315-.964.531a.908.908 0 0 0-.222.208c-.037.048-.056.117-.03.164-.004-.054.038-.09.077-.116.075-.047.162-.065.253-.087.337-.076.676-.087 1.035-.107 1.309-.065 2.548-.036 3.933-.04 4.178-.003 8.762-.103 13.314-.452 2.378-.18 4.777-.42 7.175-.722 9.223-1.165 17.924-3.222 25.308-6.318-7.705-.185-16.998.17-25.942 1.298zM208.347-56.935c.298-.776.71-1.84 1.016-2.63a21.874 21.874 0 0 0 2.326-6.026c-1.851 1.02-3.645 2.427-5.259 4.11-.665.895-1.224 1.9-1.642 2.98-1.377 3.566-1.027 7.474.879 10.024.647-3.061 1.58-5.592 2.68-8.458zM160.854-69.658a149.093 149.093 0 0 0-19.723-4.958c-6.93-1.245-13.669-1.929-20.082-2.104a166.74 166.74 0 0 0-5.404-.042c-.458.002-.9.01-1.348-.007a1.95 1.95 0 0 1-.314-.027.14.14 0 0 1-.063-.021c-.01-.007-.01-.019 0-.024a.028.028 0 0 0-.004.033c.016.02.037.031.058.042.096.052.199.086.299.121.427.15.864.272 1.3.398 1.729.5 3.4.953 5.188 1.449 6.21 1.722 12.438 3.486 19.114 5.474a790.22 790.22 0 0 1 18.953 5.895c16.797 5.461 29.767 10.318 44.145 15.745-11.362-8.867-25.785-16.66-42.12-21.974zM101.94-88.654c-2.899-2.187-5.734-4.234-8.489-6.394-1.228-.998-2.384-1.786-3.234-3.009-.191-.274-.37-.55-.483-.87a1.6 1.6 0 0 1-.07-.25.847.847 0 0 1-.008-.067c0-.009-.003-.022.001-.023-.012 0-.015.012-.02.019a.783.783 0 0 0-.045.058 1.583 1.583 0 0 0-.136.246 3.57 3.57 0 0 0-.267 1.13c-.156 1.722.41 3.572 1.191 5.155 1.68 3.554 4.367 6.698 7.6 9.192 5.188 3.997 11.208 5.94 16.73 6.627-3.53-4.514-8.088-8.275-12.771-11.814zM93.692-109.203c-.405-2.21-1.434-4.325-3.039-5.869-.887-.875-2.067-1.482-3.213-1.566-.32-.022-.638 0-.928.071-.08.02-.16.045-.237.075l-.062.025-.023.01c.007.003.014.01.02.014l.052.037c.063.046.123.096.18.147.204.182.368.386.515.595.525.738.728 1.567.935 2.38.467 1.66.68 3.148.934 4.892.449 3.082.976 6.294 2.433 9.525 1.859-2.793 3.16-6.359 2.433-10.336zM212.281-258.014a129.04 129.04 0 0 0-13.93 5.552c-5.567 2.597-10.816 5.568-15.574 8.494-1.488.91-2.79 1.769-4.237 2.564-.397.214-.765.425-1.176.557-.116.036-.227.07-.344.067-.069-.003-.145-.018-.191-.082.015.077.089.142.168.175.123.056.263.077.393.087.461.042.935-.01 1.385-.064 1.664-.196 3.304-.57 4.966-.958 5.572-1.299 11.131-2.962 16.96-4.768 4.606-1.426 9.3-2.95 13.948-4.493 9.94-3.302 28.725-9.757 36.896-12.644-12.106-.89-25.678 1.007-39.264 5.513zM274.029-266.834c-.13-.571-.252-1.122-.403-1.73a69.396 69.396 0 0 0-1.104-4.247 56.918 56.918 0 0 0-.477-1.508l-.146-.442-.04-.12-.014-.043-.03.035a8.758 8.758 0 0 0-.373.47 10.12 10.12 0 0 0-.866 1.407 10.79 10.79 0 0 0-1.181 4.868 9.383 9.383 0 0 0 .255 2.335 8.906 8.906 0 0 0 1.645 3.427c1.624 2.016 4.031 2.724 5.928 2.25-1.332-1.338-2.16-2.905-2.55-4.252-.262-.771-.45-1.59-.644-2.45zM311.998-267.62c-1.215.256-2.489.434-3.786.58-4.758.52-9.757.437-14.46.36a650.7 650.7 0 0 1-5.33-.116c-.525-.014-1.04-.027-1.557-.043-.14-.003-.28-.009-.419-.013-.765-.026.657.021-.109-.003h-.028c.009.004.015.01.024.014l.098.049a42.189 42.189 0 0 0 1.805.834c1.61.699 3.31 1.33 5.09 1.885 4.628 1.448 9.82 2.417 15.276 2.165a26.744 26.744 0 0 0 4.496-.562 21.85 21.85 0 0 0 3.33-.996c2.328-.883 4.53-2.4 6.106-4.57 1.68-2.475 2.16-5.287 1.869-7.808-.465-3.953-2.264-7.212-4.152-9.837.622 3.15 1.212 6.704.77 9.845-.281 1.914-.966 3.771-2.138 4.936-1.028 1.151-2.586 1.938-4.28 2.564-.834.295-1.704.527-2.605.716zM74.183-149.124a83.094 83.094 0 0 0-8.08-10.126c-3.645-3.907-7.523-7.312-11.518-10.139a57.253 57.253 0 0 0-3.645-2.385c-.333-.2-.667-.394-1.001-.582a29.292 29.292 0 0 0-.262-.145l-.068-.037a.153.153 0 0 0-.023-.012l.015.022.045.063.171.244c.22.314.436.628.655.947.814 1.186 1.586 2.324 2.42 3.552 2.216 3.26 5.995 8.8 8.409 12.329 2.374 3.478 4.596 6.723 6.99 10.259 7.45 10.997 11.71 17.647 18.055 27.729-1.087-10.354-5.24-21.486-12.164-31.718zM27.976-264.446c-.307 10.153.342 20.243 1.757 30.072 5.918 20.857 12.13 40.598 18.268 58.02-3.065-18.214-7.138-38.304-12.002-59.196-.895-9.552-1.274-19.224-.966-28.895.274-8.652 1.095-17.199 2.544-25.613 3.778-22.164 11.884-41.888 22.468-58.38-13.28 14.468-23.941 34.084-28.89 57.141-1.868 8.78-2.904 17.775-3.18 26.851zM67.297-374.52a28.808 28.808 0 0 0-5.497 8.027c-1.282 5.398-1.999 10.688-2.073 15.518 2.903-3.857 5.499-8.22 7.69-12.956a52.813 52.813 0 0 1 5.044-5.85 45.004 45.004 0 0 1 3.548-3.187c4.412-3.702 9.853-6.627 15.093-9.063-5.762-1.137-12.744-.367-19.027 3.567a27.883 27.883 0 0 0-4.778 3.944zM98.676-206.022c-.043-2.155.114-4.24.641-6.156a15.856 15.856 0 0 1 2.39-5.13c1.87-2.701 4.846-4.904 7.976-6.577a35.32 35.32 0 0 1 3.563-1.643c.365-.143.73-.28 1.099-.408.1-.035.2-.069.302-.101.027-.01.053-.017.08-.025.009-.003.019-.005.028-.01l-.03-.004c-.027-.003-.055-.01-.082-.016a17.922 17.922 0 0 0-1.506-.18 22.417 22.417 0 0 0-4.144.068c-3.873.406-8.073 1.903-11.518 5.059a18.154 18.154 0 0 0-4.559 6.851c-1.015 2.747-1.423 5.622-1.358 8.428.012.543.044 1.082.09 1.617 1.071 11.764 7.728 21.03 14.142 27.48-2.607-8.527-6.611-18.856-7.067-27.993a38.394 38.394 0 0 1-.047-1.26zM128.977-160.398c-.539-.38-1.082-.768-1.628-1.158-3.746-2.678-7.44-5.41-11.246-7.942a62.806 62.806 0 0 0-5.83-3.687 61.64 61.64 0 0 0 3.135 6.203c2.442 3.966 5.655 7.807 9.67 11.037.582.467 1.182.922 1.802 1.359a30.211 30.211 0 0 0 4.844 2.798c2.137.998 4.553 1.71 7.087 1.809 2.298.12 4.632-.534 6.42-1.89 2.117-1.74 2.915-4.04 3.123-6.077-1.398 1.484-3.111 2.778-4.737 3.036-1.286.28-2.665-.016-3.985-.447-1.573-.526-3.099-1.432-4.754-2.428-1.304-.806-2.59-1.688-3.9-2.613z" transform="translate(24.35 423.29)"/><path style="opacity:1;fill:#fff;fill-opacity:1;stroke:none;stroke-width:1.26767;stroke-opacity:1" d="M114.29-202.999c.597-1.728 1.388-3.43 2.41-4.942 1.076-1.62 2.513-3.217 4.12-4.69a31.201 31.201 0 0 1 1.721-1.465c.174-.137.35-.272.53-.404.048-.036.097-.07.146-.105.012-.01.026-.018.04-.028.004-.003.008-.007.013-.009a.12.12 0 0 1-.017-.005c-.016-.003-.031-.009-.047-.012l-.178-.041a9.371 9.371 0 0 0-.676-.12 12.291 12.291 0 0 0-2.44-.093c-2.47.141-5.08.993-7.407 2.724-2.258 1.718-3.983 4.121-4.936 6.86a15.023 15.023 0 0 0-.68 2.805c-.81 6.24 1.687 11.468 4.95 14.998.531-4.632.813-9.835 1.903-13.687.161-.602.345-1.2.547-1.786zM160.938-198.75a116.378 116.378 0 0 0-5.234-8.597c-3.6-5.385-7.518-10.306-11.586-14.645a94.008 94.008 0 0 0-3.96-3.987c-.372-.353-.745-.7-1.12-1.04l-.295-.266-.077-.068c-.009-.01-.018-.016-.027-.024-.046-.103.06.136.014.033.002.007.039.087.042.093l.16.364.617 1.394a292.19 292.19 0 0 0 2.315 5.08c2.484 5.313 5.296 10.883 8.25 16.455a625.826 625.826 0 0 0 4.673 8.634c2.066 3.753 4.36 7.858 6.401 11.519 4.098 7.375 7.306 12.982 10.486 19.812-.065-7.164-1.88-14.734-4.884-22.44a103.12 103.12 0 0 0-5.776-12.318zM185.294-199.506a1235.32 1235.32 0 0 1-2.416-11.613c-1.24-9.097-3.027-17.737-5.258-25.449-.977 7.97-1.36 16.88-1.132 26.169.366 4.071.972 8.18 1.844 12.264a93.452 93.452 0 0 0 3.436 12.104c3.228 8.97 7.722 16.745 13.281 22.672-2.847-7.804-4.957-15.456-7.13-24.519a494.563 494.563 0 0 1-2.625-11.628zM257.81-173.95a12.037 12.037 0 0 0-2.399 4.994c-.648 2.588-.66 5.655.948 8.142 1.269 1.734 3.122 2.582 4.855 2.898 1.548.296 3.113.258 4.474.338.454.042.866.022 1.195.227a.436.436 0 0 1 .21.257c.042.147-.001.327-.066.492.11-.138.21-.302.222-.506a.65.65 0 0 0-.188-.455c-.338-.353-.834-.513-1.252-.639-1.38-.457-2.847-.75-4.134-1.288-1.381-.596-2.698-1.464-3.213-2.62-.925-1.62-.5-3.838.012-6.116a9.993 9.993 0 0 1 1.88-3.667c.42-.52.89-.997 1.403-1.42 1.616-1.36 3.691-2.267 5.835-2.915 4.64-1.366 9.405-1.6 13.776-.99-4.024-1.88-9.114-2.7-14.416-1.716-2.494.448-5.039 1.395-7.228 3.09a12.04 12.04 0 0 0-1.916 1.895zM265.001-137.246c-1.213.225-2.435.439-3.655.65-4.98.479-9.735 1.3-13.927 2.404 4.295.595 9.172.84 14.23.718a45.506 45.506 0 0 0 3.869-.54c2.664-.494 5.263-1.244 7.7-2.313 3.504-1.504 6.522-3.71 8.04-6.605-2.504 2.078-5.477 3.076-8.95 4.062-2.381.653-4.79 1.158-7.307 1.624zM262.546-123.346c-2.043-.703-4-1.466-5.942-2.341-2.327-1.487-4.666-2.765-6.944-3.8 1.542 1.972 3.398 3.993 5.477 5.973a25.403 25.403 0 0 0 6.205 3.16c5.2 1.818 10.555 1.928 14.985.953-4.377-1.183-9.092-2.33-13.781-3.945zM278.33-133.323a11.743 11.743 0 0 0 2.812-7.581c-1.944 1.634-3.67 3.56-5.299 5.45l-.154.18c-1.496 1.797-3.293 3.575-4.492 5.812 2.347-.492 4.93-1.446 6.95-3.652.062-.069.123-.138.183-.209z" transform="translate(24.35 423.29)"/><path style="opacity:1;fill:#fff;fill-opacity:1;stroke:none;stroke-width:1.26767;stroke-opacity:1" d="M274.817-123.815c.08-1.46-.458-2.753-1.17-3.733-.272 1.247-.29 2.436-.335 3.663a16.552 16.552 0 0 1-.149 1.863c-.05.367-.106.721-.251 1.065a1.47 1.47 0 0 1-.138.277c-.016.05-.043.088-.078.104a.219.219 0 0 1 .127-.014c.11-.021.224-.062.337-.117.393-.19.738-.528.988-.927.406-.644.626-1.406.67-2.18zM327.313-291.41c.15-1.307.15-2.596.039-3.832-.27-3.82-1.354-7.336-2.817-10.38a54.914 54.914 0 0 0-2.559-4.312 56.58 56.58 0 0 0 .267 4.958c.165 3.239.36 6.619.261 9.85a65.088 65.088 0 0 1-.22 3.167c-.21 2.072-.586 3.945-1.494 5.515-.613 1.172-1.566 2.25-2.718 3.073-1.594 1.156-3.72 1.898-5.762 2.434 2.019.663 4.426.991 6.982.309a10.113 10.113 0 0 0 5.067-3.318c1.727-2.193 2.648-4.826 2.954-7.464zM290.896-290.616c-1.386.297-2.718.72-3.98 1.233-4.211 2.402-8.013 5.191-11.051 8.13 4.176-.638 8.55-1.901 12.865-3.725a95.043 95.043 0 0 1 3.42-.812c1.975-.422 3.875-.715 5.781-.736 3.18-.098 6.5.753 9.308 2.58-1.264-3.19-4.529-6.054-8.904-6.873-2.468-.434-5.007-.317-7.439.203zM303.31-339.7c.757-2.477 2.442-4.749 4.832-6.015 1.834-.888 3.732-1.003 5.312-.605.71.276 1.386.573 2.025.89-.672.239-1.347.456-2.026.65-1.283.557-2.38 1.337-3.1 2.227-1.048 1.12-1.676 2.714-2.255 4.392l-.112.326c-1.163 3.64-1.714 7.854-2.805 11.737-2.032-3.484-3.3-8.282-2.003-13.131.04-.158.084-.315.132-.472zM96.242-392.017a25.596 25.596 0 0 0-2.532 4.373c-1.27 3.984-2.057 7.961-2.291 11.632 2.412-2.775 4.599-6.038 6.44-9.631.83-1.21 1.666-2.417 2.51-3.58a64.096 64.096 0 0 1 3.042-3.898c2.29-2.708 4.75-5.066 7.657-6.975-3.512-.25-7.456 1.054-10.77 3.745a22.93 22.93 0 0 0-4.056 4.334zM117.447-386.686c.833 2.326 1.562 4.512 2.205 6.839.478 1.708.89 3.34 1.112 5.055.062.476.11.947.128 1.427.005.129.007.257.005.385l-.002.101a.822.822 0 0 1-.002.036l.026-.027.068-.077c.085-.1.167-.204.245-.31.296-.402.556-.845.787-1.31.831-1.676 1.28-3.632 1.377-5.662.125-2.719-.32-5.489-1.242-8.122-1.904-5.43-5.57-9.642-9.5-12.38 1.288 4.81 3.07 9.223 4.794 14.045z" transform="translate(24.35 423.29)"/><path style="opacity:1;fill:#fff;fill-opacity:1;stroke:none;stroke-width:1.44868;stroke-opacity:1" d="M152.847-399.38a63.02 63.02 0 0 0-7.627 3.152c-7.327 3.537-13.748 8.107-19.141 13.055a148.737 148.737 0 0 0-7.088 7.478 151.967 151.967 0 0 0 9.295-4.282c6.503-2.961 13.281-6.043 20.217-8.746 2.35-.902 4.72-1.785 7.068-2.582 5.124-1.74 10.114-3.06 15.176-3.482 3.55-.308 7.052-.195 10.384.615 3.732.882 7.323 2.705 10.432 5.059a22.593 22.593 0 0 0-8.706-9.197c-3.577-2.075-7.763-3.271-12.108-3.583-6.073-.426-12.15.584-17.902 2.514z" transform="translate(24.35 423.29)"/><path style="opacity:1;fill:#fff;fill-opacity:1;stroke:none;stroke-width:1.26767;stroke-opacity:1" d="M191.886-391.73a45.193 45.193 0 0 0-8.993 6.432c-3.72 4.6-7 9.205-9.65 13.565 4.142-2.977 8.387-6.502 12.568-10.438a88 88 0 0 1 8.552-5.243 83.938 83.938 0 0 1 5.133-2.533c6.53-2.985 13.148-4.962 19.463-6.435-6.399-1.113-13.87-.69-21.27 2.013a44.589 44.589 0 0 0-5.803 2.64zM92.748-144.686c-1.563 4.39-2.465 8.95-2.64 13.516-.174 4.964.469 9.707 1.778 13.99.407 1.333.876 2.611 1.417 3.824.15.338.306.67.471.994.043.086.087.17.132.255l.036.065a.287.287 0 0 1 .012.023l-.006-.026-.012-.073a31.475 31.475 0 0 1-.173-1.363 55.343 55.343 0 0 1-.264-3.97c-.145-4.33.112-8.786.817-13.329.632-4.148 1.685-8.216 3.122-12.23 3.71-10.368 9.698-19.604 15.847-27.321-8.418 5.312-16.441 14.143-20.539 25.645zM214.461-382.038c.098-.28.196-.56.297-.838.949-2.38 1.679-4.581 3.176-5.989.794-.838 1.977-1.493 3.301-1.704a7.08 7.08 0 0 1 1.418-.08c.146.007.291.018.438.035.04.005.08.01.12.018.011 0 .022.003.033.005.003 0 .01 0 .012.002l-.009-.01-.022-.024a4.627 4.627 0 0 0-.426-.396 5.87 5.87 0 0 0-1.364-.833c-1.526-.662-3.48-.717-5.323.11-2.993 1.417-5.004 4.251-6.028 7.106-.126.323-.245.649-.356.976-1.94 5.714-1.481 11.49-.101 16.206 1.865-4.535 3.165-9.782 4.834-14.583zM226.5-377.017c.137-.644.284-1.284.444-1.92.497-1.91 1.016-3.68 1.92-5.093.584-.912 1.282-1.726 2.128-2.172 1.343-.902 3.538-.78 5.56-.292 1.172.461 2.34.892 3.501 1.292a73.438 73.438 0 0 0-2.743-2.661c-1.87-1.374-4.516-2.402-7.548-1.72-1.753.5-3.283 1.558-4.406 2.916-1.624 1.95-2.617 4.226-3.218 6.453-.2.72-.375 1.442-.526 2.168-1.774 8.529-.185 16.923 1.96 23.585 1.08-6.953 1.33-15.083 2.927-22.556zM267.903-351.974a30.453 30.453 0 0 1 4.577-5.538c3.465-3.284 7.482-5.864 11.761-7.51 1.706-.646 3.362-1.161 5.083-1.286 1.201-.05 2.43-.05 3.337.755-.588-1.065-1.95-1.665-3.247-1.908-1.866-.403-3.854-.347-5.813-.05-4.985.731-9.978 2.933-14.244 6.448a26.88 26.88 0 0 0-5.682 6.397c-1.817 2.867-3.062 6.067-3.577 9.414-1.232 8.91 2.548 16.782 6.892 22.166-2.275-6.463-4.092-14.371-2.35-21.31.618-2.667 1.751-5.218 3.263-7.578zM241.617-381.244a19.56 19.56 0 0 0-5.843 6.648c-1.962 3.65-2.815 7.523-2.973 11.13a26.666 26.666 0 0 0 .09 3.762c.034.358.076.711.128 1.06.014.094.029.188.045.28a.974.974 0 0 1 .012.074c0 .009.003.017.005.026l.007-.026.02-.07a40.32 40.32 0 0 1 .399-1.276c.376-1.14.792-2.275 1.246-3.42 1.267-3.176 2.818-6.4 4.84-9.166 1.39-1.895 3.068-3.614 4.933-4.959a16.924 16.924 0 0 1 3.783-2.078c5.245-2.198 12.052-1.773 17.73-1.188-4.915-3.035-11.881-5.486-19.291-3.355a18.202 18.202 0 0 0-5.131 2.558zM260.512-367.172c-6.551 5.214-10.894 12.075-13.487 18.415 5.205-4.396 10.701-9.839 16.598-14.487l.11-.086c3.272-2.54 6.433-4.807 9.965-6.12 2.017-.78 4.105-1.258 6.26-1.09.831.185 1.686.368 2.561.55h.001a54.144 54.144 0 0 0-2.146-1.647c-2.114-1.1-4.766-1.488-7.456-1.18-4.518.544-8.727 2.708-12.287 5.55l-.12.095z" transform="translate(24.35 423.29)"/><path style="opacity:1;fill:#fff;fill-opacity:1;stroke:none;stroke-width:0;stroke-miterlimit:4;stroke-dasharray:none;stroke-opacity:1" d="M95.31-69.624a85.517 85.517 0 0 0-1.11-7.245c-1.668-7-3.817-13.516-6.267-18.987-.37 5.983-.1 12.789.789 19.871.2 2.345.431 4.711.68 7.065a746.58 746.58 0 0 0 1.182 10.083c.8 6.612 1.42 10.754 1.809 16.544 2.119-4.803 3.133-10.511 3.332-16.762a75.843 75.843 0 0 0-.415-10.57zM205.468-38.041c.727-3.541-.15-6.883-1.86-9.644-2.098 2.45-3.39 5.555-3.969 8.463-.346 1.822-.453 3.638-.469 5.5-.028.847.11 1.614-.048 2.44-.034.187-.07.371-.153.552-.032.064-.057.126-.11.181a.19.19 0 0 0-.005-.023c0 .01.003.016.005.024.07.03.155.036.228.045a2.18 2.18 0 0 0 .69-.073c.995-.244 1.932-.944 2.621-1.66 1.564-1.553 2.614-3.627 3.07-5.805z" transform="translate(24.35 423.29)"/></g></svg>