<?xml version="1.0" encoding="UTF-8" standalone="no"?>
<!-- Created with Inkscape (http://www.inkscape.org/) -->

<svg
   version="1.1"
   id="svg824"
   width="400"
   height="400"
   viewBox="0 0 400 400"
   xmlns="http://www.w3.org/2000/svg">
  
  <g
     id="g830"
     transform="translate(24.350121,423.29021)"
     style="fill:#000000">
    <path
       style="opacity:1;fill:#ffffff;fill-opacity:1;stroke:none;stroke-width:1.26767px;stroke-linecap:butt;stroke-linejoin:miter;stroke-opacity:1"
       d="m 243.70642,-235.47711 c -1.95448,0.16656 -3.88786,0.44895 -5.78513,0.81944 0,0 0,0 0,0 -4.78036,0.92607 -9.24688,2.36728 -13.26482,4.31151 -1.36973,0.66137 -2.6724,1.35921 -3.84097,2.22504 -0.34818,0.25679 -0.69331,0.53021 -0.96977,0.8613 -0.14602,0.15759 -0.3124,0.39244 -0.23394,0.58993 -0.0326,-0.20988 0.17139,-0.34934 0.33172,-0.48921 0.3253,-0.25305 0.69468,-0.43225 1.0801,-0.6137 1.28716,-0.60091 2.62755,-1.02914 4.06605,-1.46743 4.19615,-1.27228 8.58018,-2.22239 13.26106,-2.92833 0,0 0,0 0,0 1.84979,-0.27598 3.71492,-0.50732 5.58174,-0.66784 3.44213,-0.29628 6.82222,-0.34609 10.15355,-0.023 5.35771,0.53708 10.14565,2.03217 13.9298,4.95731 -3.05713,-3.71368 -7.96587,-6.20661 -13.62601,-7.17741 -3.49078,-0.61045 -7.08334,-0.70409 -10.68338,-0.39773 z"
       id="path2618" />
    <path
       style="opacity:1;fill:#ffffff;fill-opacity:1;stroke:none;stroke-width:1.26767px;stroke-linecap:butt;stroke-linejoin:miter;stroke-opacity:1"
       d="m 244.25376,-215.73184 c -0.6892,0.009 -1.3812,0.0592 -2.07146,0.15206 0,0 -2e-5,0 -2e-5,0 -5.00396,0.71707 -8.75606,4.10251 -9.89367,7.85149 3.22923,-1.91029 6.87889,-2.90621 10.3891,-3.08208 0,0 0,0 0,0 0.55058,-0.0361 1.10121,-0.0585 1.65594,-0.0697 4.28888,-0.0879 8.94825,0.47011 13.30797,0.45896 -3.24358,-2.95835 -7.9005,-5.3826 -13.38786,-5.31075 z"
       id="path3374" />
    <path
       style="opacity:1;fill:#ffffff;fill-opacity:1;stroke:none;stroke-width:1.26767px;stroke-linecap:butt;stroke-linejoin:miter;stroke-opacity:1"
       d="m 240.56633,-204.67359 c -1.34479,-0.58894 -2.51726,-1.08924 -3.81786,-1.72903 0,0 0,0 0,0 -0.79893,-0.36838 -1.60947,-0.80099 -2.41308,-1.30177 -0.2157,-0.13031 -0.44859,-0.30212 -0.69727,-0.43426 -0.0799,-0.0835 -0.31527,-0.15637 -0.39337,-0.0611 0.12237,0.009 0.074,0.16898 0.12772,0.26199 0.043,0.25331 0.0563,0.5085 0.11564,0.79387 0.19658,1.0151 0.63949,2.03639 1.32771,2.96353 0,0 0,0 0,0 1.04539,1.39017 2.47828,2.49192 4.08075,3.22577 3.13249,1.43311 6.43495,1.30421 9.19425,0.37499 -2.42105,-1.7813 -4.98092,-2.97806 -7.52456,-4.09407 z"
       id="path3732" />
    <path
       style="opacity:1;fill:#ffffff;fill-opacity:1;stroke:none;stroke-width:1.26767px;stroke-linecap:butt;stroke-linejoin:miter;stroke-opacity:1"
       d="m 250.0284,-209.39504 c -1.50644,-1.16196 -3.34416,-1.12072 -4.8254,-0.47253 0.94154,1.35569 2.08182,2.2792 2.8395,2.93791 -3.7e-4,-3.2e-4 0.0354,0.0309 0.0352,0.0306 0.23994,0.29689 0.57679,0.31384 0.69994,0.41625 0.2158,0.0973 0.29691,0.47249 0.28372,0.96404 -0.0464,0.26961 -0.0908,0.56488 -0.13497,0.87948 2e-4,4.8e-4 3.8e-4,8.3e-4 5.3e-4,10e-4 -1.5e-4,-1.9e-4 -1.7e-4,-3.3e-4 -5e-5,-4.2e-4 0.29782,-0.0173 0.60736,-0.0685 0.92522,-0.15188 0.56639,-0.2137 1.12093,-0.70483 1.38348,-1.59213 0.18212,-1.23544 -0.33083,-2.39213 -1.14172,-2.96076 -0.0216,-0.0173 -0.0435,-0.0345 -0.0654,-0.0514 z"
       id="path4278" />
    <path
       style="opacity:1;fill:#ffffff;fill-opacity:1;stroke:none;stroke-width:1.26767;stroke-opacity:1"
       d="m 277.07119,-219.52886 c 0.43041,-0.62108 0.88007,-1.25437 1.35924,-1.87985 1.21124,-1.04622 2.23001,-2.3139 3.05056,-3.7661 -1.669,-0.0602 -3.41166,0.21982 -5.10108,0.79558 -0.9557,0.57357 -1.79984,1.35869 -2.46799,2.28576 -1.92684,2.67588 -2.06785,6.00855 -0.72328,8.34745 1.05818,-1.64806 3.06682,-4.60795 3.88255,-5.78284 z"
       id="path4507" />
    <path
       style="opacity:1;fill:#ffffff;fill-opacity:1;stroke:none;stroke-width:1.26767;stroke-opacity:1"
       d="m 287.16547,-186.23336 c 0.36318,0.76736 0.72136,1.53566 1.07445,2.30623 2.35174,5.21666 4.4573,9.99243 5.12553,15.10271 0.3362,2.48071 0.3842,4.90667 -0.68507,7.06665 -0.5459,0.69021 -1.08662,1.38655 -1.62218,2.08884 0.74513,-0.47446 1.5084,-0.97633 2.28836,-1.50434 1.81543,-1.93115 2.71471,-4.80529 2.9132,-7.72492 0.39299,-5.78379 -1.26718,-11.55566 -3.62878,-16.9748 -0.35055,-0.81724 -0.71663,-1.62741 -1.09737,-2.4301 -4.63669,-9.77193 -11.25467,-18.04005 -17.67079,-24.32309 4.31145,9.07322 8.99119,17.31961 13.30265,26.39282 z"
       id="path4557" />
    <path
       style="opacity:1;fill:#ffffff;fill-opacity:1;stroke:none;stroke-width:1.26767;stroke-opacity:1"
       d="m 284.41642,-159.66715 c -0.68215,0.0299 -1.3671,0.11547 -2.06197,0.26375 0,0 0,0 0,0 -0.94206,0.19804 -1.96603,0.4931 -2.93898,0.96967 -0.2853,0.14325 -0.62224,0.30122 -0.90426,0.51987 -0.0758,0.0568 -0.17492,0.13238 -0.23874,0.22427 -0.0509,0.0568 -0.0647,0.14758 -0.0309,0.19268 0.0337,-0.0451 0.0915,-0.0293 0.12151,-0.0138 0.0711,0.0233 0.12669,0.0784 0.2035,0.11909 0.27143,0.16725 0.49027,0.36391 0.76171,0.53114 0.87874,0.57732 1.8172,1.04663 2.9017,1.31194 0,0 0,0 0,0 0.76759,0.19534 1.56859,0.28133 2.38074,0.24459 2.47386,-0.1134 4.86135,-1.37763 6.07027,-3.45992 -2.26815,-0.56477 -4.21266,-0.99119 -6.26465,-0.90348 z"
       id="path4844" />
    <path
       style="opacity:1;fill:#ffffff;fill-opacity:1;stroke:none;stroke-width:1.26767;stroke-opacity:1"
       d="m 273.33411,-89.534398 c -0.0274,-1.78553 -0.25227,-3.54203 -0.63336,-5.2335 0,0 0,0 0,0 -0.74112,-3.34254 -2.03771,-6.398972 -3.72229,-9.007722 -0.57082,-0.88504 -1.18251,-1.72487 -1.87103,-2.46638 -0.2011,-0.21675 -0.41212,-0.43417 -0.64518,-0.6173 0,0 0,0 0,0 -0.0658,-0.052 -0.13722,-0.10529 -0.21432,-0.14343 0,0 0,0 0,0 -0.0352,-0.0212 -0.0908,-0.0437 -0.12841,-0.025 0.0419,0.002 0.0596,0.043 0.0865,0.0746 0,0 0,0 0,0 0.044,0.0647 0.0739,0.13584 0.10581,0.21033 0,0 0,0 0,0 0.10873,0.25904 0.18185,0.52484 0.2605,0.80335 0.26227,0.94359 0.44981,1.88208 0.64882,2.88259 0.57262,2.9105 1.027,5.884832 1.32457,8.961322 0,0 0,0 0,0 0.14325,1.54734 0.24642,3.10492 0.27543,4.63803 0.0376,1.96851 -0.0464,3.89173 -0.32059,5.78001 -0.54362,3.87288 -1.98034,7.5605 -4.12465,10.71771 3.48771,-1.69198 6.62324,-5.1704 8.04117,-9.81879 0.66092,-2.18322 0.95153,-4.46953 0.91711,-6.75566 z"
       id="path5283" />
    <path
       style="opacity:1;fill:#ffffff;fill-opacity:1;stroke:none;stroke-width:1.26767;stroke-opacity:1"
       d="m 236.8274,-71.715098 c -2.39358,0.30251 -4.77806,0.66171 -7.13429,1.08417 0,0 0,0 0,0 -4.56282,0.81783 -8.92516,1.80874 -13.03383,3.13895 -1.29916,0.42068 -2.56604,0.8558 -3.76799,1.41824 -0.32736,0.15257 -0.66739,0.31473 -0.96399,0.53117 0,0 0,0 0,0 -0.0794,0.0568 -0.16431,0.12358 -0.22277,0.20779 0,0 0,0 0,0 -0.0366,0.0476 -0.0556,0.11703 -0.0288,0.16346 -0.005,-0.0532 0.0373,-0.0896 0.0758,-0.11565 0,0 0,0 0,0 0.0754,-0.0469 0.16207,-0.0652 0.25362,-0.0873 0,0 0,0 0,0 0.33662,-0.0759 0.67537,-0.0865 1.03524,-0.10667 1.30841,-0.0647 2.54785,-0.0361 3.93301,-0.04 4.17804,-0.003 8.76161,-0.10322 13.31374,-0.45183 0,0 0,0 0,0 2.37766,-0.18113 4.77708,-0.41933 7.17437,-0.72175 9.22334,-1.16522 17.92479,-3.2224 25.3081,-6.31888 -7.70491,-0.18461 -16.99805,0.17019 -25.94206,1.29838 z"
       id="path5333" />
    <path
       style="opacity:1;fill:#ffffff;fill-opacity:1;stroke:none;stroke-width:1.26767;stroke-opacity:1"
       d="m 208.34718,-56.934628 c 0.29756,-0.7766 0.70972,-1.84056 1.01579,-2.63132 1.08795,-1.92622 1.87055,-3.96286 2.32594,-6.02481 -1.851,1.01884 -3.6449,2.42641 -5.25866,4.10914 -0.66563,0.8961 -1.22383,1.90006 -1.64192,2.98106 -1.37766,3.56555 -1.02764,7.47349 0.87834,10.023493 0.64713,-3.060923 1.58055,-5.591943 2.68051,-8.457563 z"
       id="path5511" />
    <path
       style="opacity:1;fill:#ffffff;fill-opacity:1;stroke:none;stroke-width:1.26767;stroke-opacity:1"
       d="m 160.85358,-69.657658 c -6.53557,-2.12491 -13.14825,-3.7784 -19.72281,-4.95862 0,0 0,0 0,0 v 0 c -6.92964,-1.24448 -13.66873,-1.92843 -20.0816,-2.10358 v 0 c -1.83009,-0.0502 -3.65178,-0.0511 -5.40456,-0.0423 v 0 c -0.45715,0.002 -0.89982,0.0104 -1.34789,-0.007 v 0 c 0,0 0,0 0,0 -0.10684,-0.003 -0.21155,-0.007 -0.31353,-0.0266 -0.0223,-0.003 -0.0463,-0.009 -0.0633,-0.0216 -0.009,-0.007 -0.009,-0.0183 1.3e-4,-0.024 -0.009,0.009 -0.0104,0.024 -0.004,0.0338 0.0155,0.0199 0.0373,0.0306 0.0583,0.0419 0.0954,0.0513 0.19835,0.0856 0.2983,0.12065 0,0 0,0 0,0 v 0 c 0.42748,0.14964 0.8641,0.27241 1.29983,0.39848 v 0 c 1.72916,0.49971 3.40127,0.9522 5.18899,1.44837 v 0 c 6.20963,1.72202 12.43795,3.48625 19.11326,5.47434 v 0 c 0,0 0,0 0,0 6.30499,1.87807 12.54881,3.81207 18.95293,5.89501 16.79699,5.46085 29.76701,10.31747 44.14494,15.745283 -11.36204,-8.867093 -25.78418,-16.659733 -42.11943,-21.974003 z"
       id="path5561" />
    <path
       style="opacity:1;fill:#ffffff;fill-opacity:1;stroke:none;stroke-width:1.26767;stroke-opacity:1"
       d="m 101.93954,-88.653618 c -2.898542,-2.18753 -5.733115,-4.234 -8.488482,-6.39478 0,0 0,0 0,0 v 0 c -1.228083,-0.99728 -2.384295,-1.78606 -3.234177,-3.00845 v 0 c -0.191034,-0.27419 -0.368967,-0.54928 -0.483124,-0.87068 v 0 c 0,0 0,0 0,0 -0.02865,-0.0823 -0.05402,-0.165 -0.06887,-0.25009 0,0 0,0 0,0 -0.0035,-0.0221 -0.0069,-0.0444 -0.0086,-0.0663 -4.14e-4,-0.009 -0.0035,-0.0216 0.0011,-0.0233 -0.01208,3.6e-4 -0.01553,0.0121 -0.02123,0.019 -0.01553,0.0185 -0.03072,0.038 -0.04453,0.058 0,0 0,1e-5 0,1e-5 -0.05316,0.0772 -0.09683,0.16121 -0.135318,0.2463 0,0 0,0 0,0 v 0 c -0.153614,0.34408 -0.232941,0.74061 -0.267047,1.12988 v 0 c -0.156203,1.72209 0.408907,3.57228 1.19075,5.15478 v 0 c 0,0 0,2e-5 0,2e-5 1.680622,3.55443 4.366518,6.69872 7.599797,9.19185 5.187921,3.99771 11.208391,5.93987 16.730661,6.62729 -3.52996,-4.51389 -8.08833,-8.27501 -12.77193,-11.81353 z"
       id="path5611" />
    <path
       style="opacity:1;fill:#ffffff;fill-opacity:1;stroke:none;stroke-width:1.26767;stroke-opacity:1"
       d="m 93.692145,-109.20288 c -0.405575,-2.20997 -1.433787,-4.32515 -3.038828,-5.86912 0,0 0,0 0,0 v 0 c -0.887716,-0.87484 -2.06728,-1.48241 -3.213792,-1.56628 v 0 c -0.319586,-0.0217 -0.63736,-4.3e-4 -0.927949,0.0716 v 0 c 0,0 0,0 0,0 -0.08043,0.0205 -0.159482,0.0447 -0.236289,0.0742 0,0 0,0 0,0 -0.02088,0.009 -0.04142,0.0173 -0.06196,0.0254 -0.0086,0.003 -0.01553,0.007 -0.02347,0.0104 0.0069,0.003 0.01381,0.009 0.02054,0.0138 0.0176,0.0121 0.03486,0.024 0.05195,0.0366 0,0 0,0 0,0 0.06283,0.0461 0.122373,0.0958 0.180418,0.14723 0,0 0,0 0,0 v 0 c 0.202788,0.18254 0.367655,0.38569 0.514503,0.59483 v 0 c 0.525049,0.73871 0.727871,1.5677 0.93506,2.37992 v 0 c 0,0 0,0 0,0 0.466641,1.66085 0.68051,3.14781 0.933696,4.89268 0.448864,3.08209 0.97645,6.29366 2.433313,9.524262 1.858608,-2.793042 3.160529,-6.358472 2.433003,-10.335662 z"
       id="path5879" />
    <path
       style="opacity:1;fill:#ffffff;fill-opacity:1;stroke:none;stroke-width:1.26767;stroke-opacity:1"
       d="m 212.28139,-258.01378 c -4.79802,1.5927 -9.46065,3.46454 -13.93026,5.55219 0,0 0,0 0,0 -5.56711,2.59633 -10.81658,5.56797 -15.5746,8.49314 -1.48793,0.91064 -2.79003,1.76934 -4.23652,2.56414 -0.39708,0.21446 -0.76538,0.42565 -1.17577,0.55741 0,0 -1e-5,0 -1e-5,0 -0.11668,0.0359 -0.22763,0.0704 -0.34377,0.0673 0,0 0,0 0,0 -0.069,-0.003 -0.14585,-0.0188 -0.1915,-0.082 0.0155,0.0763 0.0889,0.14119 0.16846,0.17483 0,0 0,0 0,0 0.12289,0.0559 0.26304,0.0763 0.39223,0.0868 0,0 0,1e-5 0,1e-5 0.46158,0.0418 0.93535,-0.0104 1.38503,-0.064 1.66476,-0.19585 3.30439,-0.57077 4.96594,-0.95777 5.57278,-1.2989 11.13178,-2.96265 16.96001,-4.7682 0,0 0,0 0,0 4.60679,-1.42605 9.29985,-2.94978 13.94795,-4.49286 9.94054,-3.30199 28.72569,-9.75674 36.89686,-12.64434 -12.10674,-0.89013 -25.67809,1.00707 -39.26412,5.51329 z"
       id="path5929" />
    <path
       style="opacity:1;fill:#ffffff;fill-opacity:1;stroke:none;stroke-width:1.26767;stroke-opacity:1"
       d="m 274.0287,-266.8339 c -0.12928,-0.57134 -0.25213,-1.12191 -0.40229,-1.72962 0,0 0,0 0,0 v 0 c -0.32123,-1.3785 -0.66698,-2.79104 -1.104,-4.24732 v 0 c -0.15034,-0.50183 -0.31163,-1.00588 -0.47755,-1.50835 v 0 c -0.0482,-0.14654 -0.0979,-0.29544 -0.1462,-0.4416 0,0 0,0 0,0 -0.0138,-0.0399 -0.0264,-0.0796 -0.0395,-0.11926 0,0 0,0 0,0 -0.005,-0.0138 -0.009,-0.0292 -0.0138,-0.0437 -0.0104,0.0121 -0.0204,0.0235 -0.0304,0.0352 0,0 0,0 0,0 -0.0276,0.0323 -0.0549,0.0647 -0.082,0.0974 0,0 0,0 0,0 -0.10011,0.12099 -0.19675,0.24526 -0.29066,0.3721 v 0 c -0.32245,0.43698 -0.61157,0.90878 -0.86597,1.40699 v 0 c -0.7351,1.43565 -1.17249,3.09318 -1.18153,4.86852 v 0 c 0,0 0,0 0,0 -0.0121,0.76381 0.0673,1.54898 0.25534,2.33422 0.2922,1.21809 0.83972,2.40496 1.64495,3.42732 1.62363,2.01642 4.0311,2.72397 5.92829,2.24946 -1.33211,-1.33703 -2.16037,-2.90474 -2.55132,-4.25145 -0.26092,-0.77145 -0.44921,-1.59002 -0.64306,-2.44986 z"
       id="path5979" />
    <path
       style="opacity:1;fill:#ffffff;fill-opacity:1;stroke:none;stroke-width:1.26767;stroke-opacity:1"
       d="m 311.99833,-267.61926 c -1.2154,0.25566 -2.48893,0.43349 -3.78586,0.57973 -4.75823,0.52022 -9.75769,0.43656 -14.46056,0.3589 v 0 0 c -1.82716,-0.0316 -3.58027,-0.0708 -5.33012,-0.11529 v 0 c -0.52509,-0.0138 -1.04021,-0.0269 -1.55701,-0.0426 v 0 c 0,0 0,0 0,0 -0.1398,-0.003 -0.27939,-0.009 -0.41859,-0.0138 0,0 0,0 0,0 -0.76544,-0.0252 0.65656,0.0217 -0.10891,-0.003 -0.009,4e-4 -0.0192,5.6e-4 -0.0286,0.001 0.009,0.003 0.0155,0.009 0.0247,0.0138 0.0528,0.0261 0.0449,0.0223 0.0977,0.0485 0,0 0,0 0,0 0.12514,0.0618 0.25091,0.12289 0.37748,0.18354 0,0 0,0 0,0 v 0 c 0.46647,0.22345 0.94229,0.43972 1.42712,0.65018 v 0 c 1.60986,0.69902 3.31006,1.33061 5.09118,1.88531 v 0 0 c 4.6271,1.44779 9.81874,2.41707 15.27475,2.16489 1.47502,-0.0639 2.98435,-0.23474 4.49662,-0.56166 1.11834,-0.24198 2.23381,-0.56842 3.33059,-0.99671 2.32746,-0.88264 4.52956,-2.40011 6.10567,-4.56986 1.67959,-2.47449 2.16035,-5.2871 1.86814,-7.80719 -0.46485,-3.95345 -2.26334,-7.21209 -4.15208,-9.83785 0.62246,3.15117 1.21234,6.70418 0.77017,9.84506 -0.28118,1.91408 -0.9662,3.7714 -2.13803,4.93608 -1.02785,1.15154 -2.58546,1.93804 -4.2803,2.56375 -0.83311,0.29542 -1.70343,0.52755 -2.60409,0.71672 z"
       id="path6029" />
    <path
       style="opacity:1;fill:#ffffff;fill-opacity:1;stroke:none;stroke-width:1.26767;stroke-opacity:1"
       d="m 74.18256,-149.12427 c -2.451298,-3.62055 -5.169194,-7.00997 -8.079953,-10.12543 0,0 0,0 0,0 v 0 c -3.64436,-3.90707 -7.522334,-7.31223 -11.517952,-10.13897 v 0 c -1.210443,-0.85635 -2.423579,-1.65442 -3.644619,-2.38564 v 0 c -0.333377,-0.19964 -0.666736,-0.39406 -1.001269,-0.58166 v 0 c 0,0 0,0 0,0 -0.08716,-0.0488 -0.174395,-0.0972 -0.261817,-0.14498 0,0 -1.7e-5,0 -1.7e-5,0 -0.02244,-0.0121 -0.04488,-0.0245 -0.06749,-0.0366 -0.0086,-0.005 -0.01553,-0.009 -0.02382,-0.0121 0.0052,0.007 0.01036,0.0138 0.01553,0.0219 0.01553,0.0209 0.02969,0.0416 0.04436,0.0625 0,0 1.8e-5,0 1.8e-5,0 0.05748,0.0811 0.114606,0.16259 0.171564,0.24428 0,0 0,0 0,0 v 0 c 0.219236,0.31371 0.435918,0.62819 0.654585,0.94653 v 0 c 0.814723,1.18601 1.586158,2.32472 2.420644,3.55237 v 0 c 2.215475,3.25943 5.994912,8.79914 8.408566,12.32903 v 0 c 0,0 0,0 0,0 2.373956,3.47815 4.595886,6.72354 6.989794,10.25882 7.450222,10.99769 11.711213,17.64729 18.055622,27.72874 -1.087604,-10.3538 -5.239736,-21.48514 -12.163959,-31.71799 z"
       id="path8504" />
    <path
       style="opacity:1;fill:#ffffff;fill-opacity:1;stroke:none;stroke-width:1.26767;stroke-opacity:1"
       d="m 27.975674,-264.4458 c -0.307124,10.15255 0.341938,20.24296 1.757049,30.07223 5.917794,20.8569 12.130337,40.59732 18.268317,58.02005 -3.065029,-18.21407 -7.138075,-38.30471 -12.001646,-59.19658 -0.895518,-9.55204 -1.274374,-19.22379 -0.966732,-28.89512 0.274589,-8.65131 1.094973,-17.19849 2.544674,-25.61232 3.778142,-22.16495 11.88383,-41.88881 22.467879,-58.38123 -13.279283,14.46863 -23.941657,34.08464 -28.890355,57.1421 -1.867841,8.77976 -2.903751,17.77491 -3.179186,26.85087 z"
       id="path8644" />
    <path
       style="opacity:1;fill:#ffffff;fill-opacity:1;stroke:none;stroke-width:1.26767;stroke-opacity:1"
       d="m 67.297085,-374.52006 c -2.316084,2.3878 -4.170082,5.1317 -5.496927,8.02706 -1.282365,5.39774 -1.998948,10.68818 -2.073166,15.51786 2.902975,-3.85651 5.498532,-8.21973 7.68986,-12.95625 1.556057,-2.0873 3.241667,-4.05383 5.044645,-5.85001 1.13046,-1.12687 2.310888,-2.19073 3.547394,-3.18633 4.411808,-3.70232 9.853226,-6.6277 15.093151,-9.06367 -5.761781,-1.1365 -12.743998,-0.36662 -19.02684,3.56767 -1.727984,1.12571 -3.332093,2.45387 -4.778117,3.94367 z"
       id="path9535" />
    <path
       style="opacity:1;fill:#ffffff;fill-opacity:1;stroke:none;stroke-width:1.26767;stroke-opacity:1"
       d="m 98.676415,-206.02237 c -0.04367,-2.15482 0.113744,-4.2391 0.640708,-6.15563 0,0 1.7e-5,0 1.7e-5,0 v 0 c 0.481071,-1.82256 1.29075,-3.58687 2.39058,-5.13004 v 0 c 1.86936,-2.70092 4.84534,-4.90376 7.97511,-6.57726 v 0 c 1.16074,-0.61466 2.34985,-1.1633 3.56364,-1.64229 v 0 c 0.36458,-0.14377 0.72915,-0.28099 1.09825,-0.40845 v 0 c 0,0 0,0 0,0 0.10063,-0.0347 0.2012,-0.0687 0.30224,-0.10115 0,0 0,0 0,0 0.0266,-0.009 0.053,-0.0173 0.0796,-0.0252 0.009,-0.003 0.019,-0.005 0.0283,-0.009 -0.009,-0.002 -0.0195,-0.003 -0.0293,-0.005 -0.0276,-0.003 -0.0551,-0.0104 -0.0827,-0.0155 0,0 -2e-5,0 -2e-5,0 -0.10528,-0.0183 -0.21103,-0.0349 -0.31717,-0.0502 0,0 0,0 0,0 v 0 c -0.39054,-0.0568 -0.78738,-0.0991 -1.18857,-0.13031 v 0 c -1.3368,-0.10425 -2.72603,-0.0847 -4.14449,0.0684 v 0 c -3.87255,0.40611 -8.07279,1.90281 -11.517551,5.05899 v 0 c -1.986694,1.86025 -3.562669,4.20531 -4.558967,6.85127 v 0 c 0,0 0,0 0,0 -1.014784,2.74703 -1.423052,5.62195 -1.357723,8.42756 0.01208,0.54292 0.04315,1.08222 0.08993,1.61671 0,0 0,0 0,0 1.070723,11.76488 7.728107,21.03081 14.141251,27.47968 -2.60675,-8.52652 -6.610891,-18.85529 -7.066503,-27.99216 0,0 0,0 0,-2e-5 -0.02226,-0.42207 -0.03832,-0.84272 -0.0466,-1.26063 z"
       id="path9784" />
    <path
       style="opacity:1;fill:#ffffff;fill-opacity:1;stroke:none;stroke-width:1.26767;stroke-opacity:1"
       d="m 128.97724,-160.39799 c -0.53898,-0.38024 -1.08251,-0.76817 -1.62839,-1.15795 -3.7458,-2.67779 -7.43972,-5.41087 -11.24589,-7.94176 -1.92689,-1.3683 -3.87756,-2.60163 -5.83009,-3.68716 0.88925,2.04969 1.93888,4.12605 3.13463,6.20284 2.44231,3.96607 5.65584,7.80735 9.67135,11.03664 0.58085,0.46776 1.18101,0.92208 1.80132,1.3591 1.50614,1.06053 3.12185,2.01243 4.84348,2.79793 2.13749,0.9987 4.55334,1.70942 7.08722,1.80911 2.29786,0.11961 4.63248,-0.53335 6.42022,-1.89038 2.11739,-1.73967 2.91499,-4.04025 3.12249,-6.07617 -1.39758,1.48361 -3.11056,2.77754 -4.73699,3.0357 -1.28583,0.27951 -2.66475,-0.0155 -3.98411,-0.44719 -1.57387,-0.52603 -3.09935,-1.43123 -4.75474,-2.4276 -1.30362,-0.80587 -2.59066,-1.6882 -3.9005,-2.61311 z"
       id="path9834" />
    <path
       style="opacity:1;fill:#ffffff;fill-opacity:1;stroke:none;stroke-width:1.26767;stroke-opacity:1"
       d="m 114.2899,-202.99857 c 0.59663,-1.72864 1.38766,-3.43108 2.41083,-4.9425 0,0 0,0 0,0 v 0 c 1.07571,-1.62058 2.51274,-3.21735 4.12009,-4.68934 v 0 c 0.55317,-0.50419 1.12113,-0.99407 1.72013,-1.46561 v 0 c 0.17431,-0.13722 0.34938,-0.27217 0.52939,-0.4039 v 0 c 0,-2e-5 1e-5,-2e-5 1e-5,-2e-5 0.0487,-0.0356 0.0975,-0.0708 0.14671,-0.10546 0,0 2e-5,0 2e-5,0 0.0121,-0.009 0.0259,-0.0181 0.039,-0.0273 0.005,-0.003 0.009,-0.007 0.0138,-0.009 -0.005,-0.001 -0.0121,-0.003 -0.0173,-0.005 -0.0155,-0.003 -0.0309,-0.009 -0.0466,-0.0121 0,0 0,0 0,0 -0.059,-0.0138 -0.1184,-0.0283 -0.17802,-0.0414 0,0 0,-2e-5 0,-2e-5 v 0 c -0.22153,-0.0483 -0.44765,-0.0873 -0.67602,-0.11978 v 0 c -0.78523,-0.11168 -1.60513,-0.14136 -2.44048,-0.0927 v 0 c -2.46911,0.14084 -5.07871,0.99292 -7.40647,2.72338 v 0 c 0,0 0,0 0,0 -2.25834,1.71786 -3.98332,4.12147 -4.93576,6.86118 -0.31724,0.91347 -0.54483,1.85308 -0.6806,2.80383 0,0 0,0 0,0 -0.81025,6.23978 1.68727,11.46864 4.95053,14.99784 0.53128,-4.63104 0.81332,-9.83489 1.90281,-13.68651 0,0 0,0 0,0 0.16138,-0.60193 0.34459,-1.20012 0.54712,-1.78563 z"
       id="path9934" />
    <path
       style="opacity:1;fill:#ffffff;fill-opacity:1;stroke:none;stroke-width:1.26767;stroke-opacity:1"
       d="m 160.93797,-198.7508 c -1.62828,-2.95932 -3.38315,-5.82936 -5.23392,-8.59601 0,0 0,0 0,0 v 0 c -3.60096,-5.38531 -7.51834,-10.30617 -11.58638,-14.64557 v 0 c -1.31057,-1.39804 -2.62955,-2.72823 -3.95917,-3.98659 v 0 c -0.37275,-0.35279 -0.74568,-0.69936 -1.12,-1.03936 v 0 c 0,0 0,0 -2e-5,0 -0.0985,-0.0896 -0.19711,-0.1785 -0.29592,-0.26694 0,0 0,0 0,0 -0.0255,-0.0228 -0.0509,-0.0456 -0.0765,-0.0682 -0.009,-0.009 -0.0178,-0.0155 -0.0266,-0.0236 -0.0461,-0.10338 0.0604,0.13601 0.0138,0.0326 0.002,0.007 0.0387,0.0872 0.0414,0.0935 0,0 0,0 0,0 0.0219,0.0495 0.13877,0.31476 0.16069,0.36421 0,0 0,0 0,0 v 0 c 0.20301,0.46044 0.40925,0.92772 0.61627,1.39353 v 0 c 0.73833,1.66128 1.51299,3.36504 2.31531,5.08098 v 0 c 2.48373,5.31226 5.29593,10.88258 8.2497,16.45433 v 0 c 0,0 0,1e-5 0,1e-5 1.52383,2.87566 3.09539,5.76627 4.67316,8.63374 2.06605,3.75326 4.35961,7.85791 6.40117,11.51892 4.0979,7.37532 7.3057,12.98181 10.48563,19.812 -0.0647,-7.16403 -1.87994,-14.73335 -4.88394,-22.43883 -1.62878,-4.19259 -3.57271,-8.313 -5.77539,-12.31863 z"
       id="path10673" />
    <path
       style="opacity:1;fill:#ffffff;fill-opacity:1;stroke:none;stroke-width:1.26767;stroke-opacity:1"
       d="m 185.29409,-199.50639 c -0.83528,-3.89557 -1.62227,-7.73079 -2.416,-11.61304 -1.24095,-9.09645 -3.02754,-17.73664 -5.25776,-25.4484 -0.9771,7.96916 -1.36055,16.87925 -1.13222,26.16843 0.36593,4.07153 0.972,8.17972 1.84401,12.26466 0.88193,4.12824 2.02478,8.18228 3.43563,12.10372 3.22826,8.96995 7.7226,16.74472 13.28166,22.67201 -2.84719,-7.80377 -4.95774,-15.45559 -7.13134,-24.51878 -0.92294,-3.8554 -1.78106,-7.69267 -2.62398,-11.6286 z"
       id="path10723" />
    <path
       style="opacity:1;fill:#ffffff;fill-opacity:1;stroke:none;stroke-width:1.26767;stroke-opacity:1"
       d="m 257.80906,-173.94938 c -1.17503,1.45582 -2.002,3.17004 -2.39803,4.99299 -0.64791,2.58848 -0.66066,5.65515 0.94793,8.14221 1.26899,1.73439 3.12161,2.58258 4.8546,2.89863 1.54808,0.29592 3.1131,0.25757 4.47467,0.33708 0.45349,0.0428 0.86624,0.0221 1.19485,0.22773 0,0 0,0 0,0 0.0958,0.0571 0.18298,0.14481 0.21045,0.25643 0,0 0,0 0,0 0.0418,0.14758 -0.002,0.32768 -0.0665,0.49241 0.10943,-0.13859 0.21042,-0.30186 0.22212,-0.50573 0,0 0,0 0,0 0.003,-0.16587 -0.069,-0.33203 -0.18815,-0.45525 0,0 0,-2e-5 0,-2e-5 -0.33766,-0.35307 -0.834,-0.51295 -1.25207,-0.63889 -1.37992,-0.45755 -2.84662,-0.74938 -4.13392,-1.28862 -1.38148,-0.5959 -2.69764,-1.46371 -3.2134,-2.62051 -0.92465,-1.61933 -0.50018,-3.83685 0.0121,-6.11459 0.35568,-1.32835 1.0098,-2.58928 1.88106,-3.66758 0.41956,-0.5194 0.88993,-0.99695 1.40248,-1.41937 0,0 0,0 0,0 1.61586,-1.36001 3.69114,-2.26804 5.83464,-2.91563 4.64102,-1.36639 9.40488,-1.59973 13.77621,-0.98976 -4.02411,-1.88077 -9.11446,-2.69925 -14.4162,-1.7164 -2.49429,0.44862 -5.03879,1.39549 -7.22758,3.09045 0,0 0,0 0,0 -0.70859,0.55823 -1.35117,1.19477 -1.91603,1.89442 z"
       id="path14479" />
    <path
       style="opacity:1;fill:#ffffff;fill-opacity:1;stroke:none;stroke-width:1.26767;stroke-opacity:1"
       d="m 265.00128,-137.24584 c -1.21322,0.22514 -2.43506,0.43837 -3.65544,0.65022 -4.97894,0.4786 -9.73438,1.30004 -13.92705,2.40318 4.29478,0.59528 9.17246,0.84001 14.23003,0.71801 1.28475,-0.12513 2.57799,-0.30151 3.86895,-0.54043 2.66392,-0.49344 5.26307,-1.24346 7.70007,-2.31194 3.50411,-1.50443 6.52181,-3.71103 8.03978,-6.60486 -2.50312,2.07738 -5.4767,3.07518 -8.94874,4.06164 -2.38214,0.6531 -4.79063,1.15775 -7.3076,1.62418 z"
       id="path21450" />
    <path
       style="opacity:1;fill:#ffffff;fill-opacity:1;stroke:none;stroke-width:1.26767;stroke-opacity:1"
       d="m 262.54598,-123.34608 c -2.0425,-0.70284 -3.99971,-1.46635 -5.94201,-2.34114 -2.32718,-1.48662 -4.66571,-2.76472 -6.94423,-3.79915 1.54259,1.97171 3.39835,3.99227 5.47753,5.97218 1.8715,1.31443 3.97041,2.37772 6.20493,3.15972 5.20038,1.8188 10.55465,1.92866 14.98472,0.95304 -4.3773,-1.18303 -9.09146,-2.32934 -13.78094,-3.94465 z"
       id="path21500" />
    <path
       style="opacity:1;fill:#ffffff;fill-opacity:1;stroke:none;stroke-width:1.26767;stroke-opacity:1"
       d="m 278.33024,-133.32263 c 1.93938,-2.27493 2.81203,-5.03996 2.81144,-7.58138 -1.94403,1.6343 -3.66892,3.55969 -5.29842,5.45071 -0.002,0.002 -0.1524,0.17729 -0.15465,0.17983 0,0 0,0 0,0 -1.49582,1.79604 -3.29212,3.57496 -4.49146,5.81128 2.34675,-0.49177 4.93007,-1.44599 6.95039,-3.65147 0,0 0,0 0,0 0.0618,-0.069 0.12272,-0.1386 0.18268,-0.20897 z"
       id="path21602" />
    <path
       style="opacity:1;fill:#ffffff;fill-opacity:1;stroke:none;stroke-width:1.26767;stroke-opacity:1"
       d="m 274.81736,-123.81519 c 0.0801,-1.45919 -0.45813,-2.75324 -1.171,-3.73302 -0.27107,1.24719 -0.28947,2.43575 -0.33467,3.66272 -0.0238,0.65212 -0.0558,1.2349 -0.14844,1.86389 0,0 0,0 0,0 v 0 c -0.0507,0.36692 -0.10615,0.72066 -0.25139,1.06427 v 0 c -0.0356,0.093 -0.0789,0.18586 -0.13791,0.27702 v 0 c 0,0 0,0 0,0 -0.0155,0.0507 -0.043,0.0882 -0.078,0.10408 0,0 0,0 0,0 -2.8e-4,1.4e-4 -4.3e-4,1.9e-4 -4.3e-4,1.9e-4 0,0 1.5e-4,-5e-5 4.3e-4,-1.7e-4 0,0 0,0 0,0 0.0352,-0.0155 0.0784,-0.0223 0.12686,-0.0138 0,0 0,0 0,0 v 0 c 0.11012,-0.0211 0.22426,-0.0621 0.33722,-0.11668 v 0 c 0.39327,-0.18939 0.73808,-0.52853 0.98816,-0.9275 v 0 c 0,0 0,0 0,0 0.40598,-0.64397 0.62624,-1.40556 0.6691,-2.18019 z"
       id="path22122" />
    <path
       style="opacity:1;fill:#ffffff;fill-opacity:1;stroke:none;stroke-width:1.26767;stroke-opacity:1"
       d="m 327.31268,-291.41024 c 0.15085,-1.30658 0.14965,-2.59543 0.0392,-3.8318 -0.26943,-3.81998 -1.35382,-7.33619 -2.81671,-10.37935 -0.81729,-1.52692 -1.67309,-2.9698 -2.55882,-4.31285 0.0138,1.60851 0.10287,3.26586 0.26663,4.95776 0.16552,3.23932 0.3593,6.6195 0.26104,9.85025 -0.0547,1.06721 -0.11754,2.14917 -0.22055,3.16707 -0.20895,2.07184 -0.58537,3.94533 -1.49382,5.51519 -0.61249,1.17164 -1.56577,2.25032 -2.71772,3.07281 -1.59358,1.15635 -3.71972,1.89795 -5.76157,2.43368 2.01819,0.66387 4.42589,0.99193 6.98202,0.30947 1.88065,-0.52379 3.68449,-1.64306 5.06641,-3.31827 1.72704,-2.19303 2.64857,-4.82599 2.95393,-7.46396 z"
       id="path23364" />
    <path
       style="opacity:1;fill:#ffffff;fill-opacity:1;stroke:none;stroke-width:1.26767;stroke-opacity:1"
       d="m 290.89634,-290.61583 c -1.38669,0.2971 -2.71873,0.72059 -3.98002,1.23287 -4.21139,2.40245 -8.01343,5.1914 -11.0515,8.12969 4.17667,-0.63819 8.55106,-1.90098 12.86554,-3.72486 1.14663,-0.28985 2.29872,-0.5725 3.41908,-0.8116 1.97541,-0.42218 3.87603,-0.71553 5.78184,-0.7364 3.18019,-0.0975 6.49899,0.75345 9.30745,2.57984 -1.26336,-3.19018 -4.52861,-6.05417 -8.90332,-6.87252 -2.4683,-0.43389 -5.00757,-0.31713 -7.43907,0.20298 z"
       id="path23827" />
    <path
       style="opacity:1;fill:#ffffff;fill-opacity:1;stroke:none;stroke-width:1.26767;stroke-opacity:1"
       d="m 303.31008,-339.7009 c 0.7569,-2.47586 2.44201,-4.74764 4.83218,-6.0139 0,0 0,0 0,0 1.83401,-0.88813 3.73159,-1.00272 5.31186,-0.6055 0.70958,0.27628 1.38606,0.57327 2.02527,0.89025 -0.67197,0.23892 -1.34771,0.45577 -2.02629,0.64941 -1.28314,0.55769 -2.38046,1.33753 -3.10072,2.22799 0,0 0,0 0,0 -1.04747,1.12024 -1.67569,2.71375 -2.2545,4.39205 -0.0373,0.10822 -0.0746,0.2169 -0.1115,0.32579 0,0 0,0 0,0 -1.16386,3.63998 -1.71481,7.85402 -2.80568,11.73661 -2.03198,-3.48357 -3.30064,-8.28164 -2.00297,-13.13125 0,0 0,0 0,0 0.0404,-0.15741 0.0844,-0.31466 0.13221,-0.47145 z"
       id="path23877" />
    <path
       style="opacity:1;fill:#ffffff;fill-opacity:1;stroke:none;stroke-width:1.26767;stroke-opacity:1"
       d="m 96.24217,-392.01679 c -1.003547,1.39072 -1.845817,2.86474 -2.532092,4.37263 -1.269144,3.98426 -2.05739,7.96148 -2.291315,11.63251 2.412705,-2.77489 4.59882,-6.03824 6.441117,-9.63175 0.828634,-1.20993 1.664915,-2.4164 2.50969,-3.57879 0.98428,-1.35524 1.98077,-2.65191 3.04192,-3.89886 2.28995,-2.70764 4.74965,-5.06599 7.65647,-6.97517 -3.51169,-0.24962 -7.45626,1.0547 -10.77028,3.74509 -1.531375,1.25171 -2.891496,2.72245 -4.05551,4.33434 z"
       id="path24832" />
    <path
       style="opacity:1;fill:#ffffff;fill-opacity:1;stroke:none;stroke-width:1.26767;stroke-opacity:1"
       d="m 117.44743,-386.68566 c 0.83304,2.32599 1.56198,4.51138 2.20413,6.8382 0,0 0,0 0,0 v 0 c 0.47819,1.70843 0.89038,3.34089 1.11232,5.05559 v 0 c 0.0618,0.47635 0.11099,0.94659 0.12807,1.42683 v 0 c 0,0 0,0 0,0 0.005,0.12893 0.007,0.25709 0.005,0.3855 0,0 0,0 0,0 -5.1e-4,0.0337 -0.001,0.0671 -0.002,0.10063 -4.6e-4,0.0121 -0.001,0.0243 -0.002,0.0364 0.009,-0.009 0.0173,-0.0183 0.0256,-0.0274 0.0231,-0.0254 0.0459,-0.0511 0.0682,-0.0773 0,0 0,0 0,0 0.0854,-0.0999 0.16691,-0.20391 0.24556,-0.31044 0,0 0,0 0,0 v 0 c 0.29553,-0.40119 0.55563,-0.84414 0.78633,-1.30895 v 0 c 0.83138,-1.67637 1.28073,-3.63286 1.37742,-5.66212 v 0 c 0,0 0,0 0,0 0.12461,-2.71917 -0.32042,-5.48912 -1.24255,-8.12207 -1.90324,-5.42932 -5.57026,-9.64215 -9.4994,-12.38095 1.28781,4.81064 3.06964,9.22369 4.79428,14.0462 z"
       id="path25617" />
    <path
       style="opacity:1;fill:#ffffff;fill-opacity:1;stroke:none;stroke-width:1.44868;stroke-opacity:1"
       d="m 152.8469,-399.37912 c -2.64626,0.88847 -5.19228,1.95985 -7.62722,3.15117 -7.32704,3.53724 -13.74756,8.10646 -19.14093,13.05516 -2.53549,2.50223 -4.90589,5.00269 -7.08816,7.4781 3.04316,-1.2755 6.15034,-2.70664 9.29589,-4.28229 6.50254,-2.96142 13.28071,-6.04262 20.21614,-8.74569 2.34977,-0.90195 4.7196,-1.78556 7.06864,-2.58264 5.12329,-1.7396 10.11358,-3.05896 15.17595,-3.48138 3.54954,-0.30866 7.0515,-0.19545 10.38427,0.61501 3.7315,0.88155 7.32215,2.70504 10.43161,5.05861 -1.77953,-3.49028 -4.67894,-6.83901 -8.70575,-9.19733 -3.57779,-2.07436 -7.76334,-3.2708 -12.10876,-3.58217 -6.07289,-0.42662 -12.1495,0.58381 -17.90168,2.51345 z"
       id="path25667" />
    <path
       style="opacity:1;fill:#ffffff;fill-opacity:1;stroke:none;stroke-width:1.26767;stroke-opacity:1"
       d="m 191.88583,-391.7292 c -3.29624,1.79386 -6.32354,3.97328 -8.99299,6.43141 -3.72008,4.59996 -6.99942,9.2046 -9.64938,13.56506 4.14151,-2.97766 8.38702,-6.50199 12.56741,-10.43834 2.74373,-1.90202 5.59111,-3.65491 8.55234,-5.24281 1.68656,-0.90477 3.39671,-1.74885 5.13239,-2.53276 6.52961,-2.98527 13.14846,-4.96211 19.46318,-6.43529 -6.39833,-1.11268 -13.86989,-0.69002 -21.26981,2.01252 -1.98537,0.7359 -3.92715,1.61981 -5.80314,2.64021 z"
       id="path27419" />
    <path
       style="opacity:1;fill:#ffffff;fill-opacity:1;stroke:none;stroke-width:1.26767;stroke-opacity:1"
       d="m 92.747868,-144.68553 c -1.562702,4.38983 -2.46514,8.94932 -2.639501,13.51595 0,0 0,0 0,0 v 0 c -0.174343,4.96395 0.468264,9.70641 1.777796,13.99022 v 0 c 0.407198,1.3323 0.875358,2.61049 1.416718,3.82354 v 0 c 0.150679,0.33755 0.306606,0.66951 0.471214,0.99407 v 0 c 0,0 0,1e-5 0,1e-5 0.04332,0.0854 0.08716,0.17036 0.132212,0.25449 0,0 0,0 0,0 0.01208,0.0217 0.0233,0.0435 0.03521,0.0651 0.0052,0.009 0.0086,0.0155 0.01208,0.0229 -0.0011,-0.009 -0.0035,-0.0173 -0.0052,-0.0257 -0.0035,-0.0242 -0.0086,-0.0485 -0.01208,-0.0727 0,0 0,-2e-5 0,-2e-5 -0.01553,-0.0939 -0.02882,-0.18799 -0.04194,-0.28242 0,0 0,0 0,0 v 0 c -0.0504,-0.3583 -0.09269,-0.71757 -0.131004,-1.08041 v 0 c -0.137907,-1.30456 -0.219081,-2.6212 -0.264371,-3.9713 v 0 c -0.144811,-4.32944 0.1115,-8.78473 0.816846,-13.32818 v 0 c 0,0 0,0 0,0 0.632164,-4.14849 1.685421,-8.21594 3.122539,-12.23087 3.709313,-10.36761 9.697113,-19.603 15.846963,-27.32037 -8.41835,5.31266 -16.441639,14.14275 -20.53897,25.64568 z"
       id="path27795" />
    <path
       style="opacity:1;fill:#ffffff;fill-opacity:1;stroke:none;stroke-width:1.26767;stroke-opacity:1"
       d="m 214.46134,-382.03803 c 0.0972,-0.28018 0.1959,-0.55922 0.29636,-0.83749 0.94893,-2.38086 1.67894,-4.58185 3.1767,-5.98906 v 0 c 0.79377,-0.83811 1.97651,-1.4939 3.30069,-1.70492 v 0 c 0.45836,-0.0721 0.93386,-0.10098 1.41772,-0.0792 v 0 0 0 c 0.14585,0.007 0.29145,0.0173 0.43791,0.035 0,0 0,0 0,0 v 0 c 0,0 0,0 0,0 0.0404,0.005 0.0808,0.0104 0.12116,0.0173 0,0 0,0 0,0 0.0104,0.001 0.0216,0.003 0.0323,0.005 0.003,5.5e-4 0.009,0.001 0.0121,0.002 -0.002,-0.003 -0.005,-0.005 -0.009,-0.009 -0.007,-0.009 -0.0155,-0.0155 -0.0223,-0.0245 0,0 0,0 0,0 -0.028,-0.0304 -0.057,-0.0601 -0.0861,-0.0894 0,0 0,0 0,0 v 0 c 0,0 0,0 0,0 -0.1065,-0.10684 -0.22095,-0.20886 -0.34027,-0.30688 v 0 0 0 c -0.39648,-0.32575 -0.85518,-0.60889 -1.36352,-0.83242 v 0 c -1.52658,-0.66235 -3.48011,-0.71713 -5.32326,0.10926 v 0 c -2.9926,1.4172 -5.00396,4.25179 -6.02806,7.10673 -0.12617,0.32304 -0.24472,0.64823 -0.35577,0.97517 -1.9394,5.71471 -1.48139,11.49039 -0.10097,16.20668 1.86486,-4.5356 3.16531,-9.78272 4.83349,-14.58317 z"
       id="path27878" />
    <path
       style="opacity:1;fill:#ffffff;fill-opacity:1;stroke:none;stroke-width:1.26767;stroke-opacity:1"
       d="m 226.49917,-377.01684 c 0.13739,-0.64383 0.28522,-1.28376 0.44517,-1.9208 0.49682,-1.90905 1.01519,-3.67986 1.91913,-5.09226 0.58479,-0.91235 1.28223,-1.72616 2.12897,-2.17207 1.34248,-0.90185 3.53737,-0.77955 5.56051,-0.29216 1.17113,0.46119 2.3388,0.89202 3.5001,1.29189 -0.85832,-0.87894 -1.77446,-1.76731 -2.74342,-2.66121 -1.86988,-1.37312 -4.51571,-2.402 -7.54788,-1.71932 -1.75246,0.49942 -3.28259,1.55741 -4.40551,2.91618 -1.6239,1.94877 -2.6173,4.22525 -3.21864,6.45297 -0.19994,0.71869 -0.37483,1.44166 -0.52589,2.16739 -1.77378,8.52923 -0.18491,16.92282 1.96051,23.58514 1.08002,-6.95302 1.33,-15.08307 2.92695,-22.55575 z"
       id="path27928" />
    <path
       style="opacity:1;fill:#ffffff;fill-opacity:1;stroke:none;stroke-width:1.26767;stroke-opacity:1"
       d="m 267.90287,-351.97427 c 1.28644,-2.01014 2.84521,-3.87917 4.57687,-5.53801 0,0 0,0 0,0 3.4653,-3.28402 7.48265,-5.86385 11.7613,-7.50992 1.70643,-0.64582 3.36154,-1.161 5.08322,-1.28577 1.20124,-0.05 2.43019,-0.0502 3.33715,0.75464 -0.58793,-1.06466 -1.94965,-1.66453 -3.24786,-1.90797 -1.86522,-0.40257 -3.85374,-0.34625 -5.81227,-0.0499 -4.98558,0.73138 -9.97822,2.9334 -14.24446,6.44844 0,0 0,0 0,0 -2.19544,1.7949 -4.13321,3.95414 -5.68183,6.39646 -1.81726,2.86685 -3.06179,6.06711 -3.57698,9.41393 -1.23195,8.9099 2.54782,16.78188 6.89207,22.16662 -2.27513,-6.4629 -4.09181,-14.37153 -2.3499,-21.31094 0.61738,-2.6662 1.7513,-5.21706 3.26269,-7.57755 z"
       id="path27978" />
    <path
       style="opacity:1;fill:#ffffff;fill-opacity:1;stroke:none;stroke-width:1.26767;stroke-opacity:1"
       d="m 241.61681,-381.24398 c -2.47184,1.76117 -4.45643,4.07387 -5.84244,6.64809 0,0 0,0 0,0 v 0 c -1.96275,3.64946 -2.81526,7.52336 -2.97289,11.12912 v 0 c -0.0583,1.29031 -0.0285,2.54839 0.0887,3.76256 v 0 c 0.0345,0.35771 0.0765,0.71132 0.12859,1.06006 v 0 c 0,0 0,1e-5 0,1e-5 0.0138,0.0941 0.0288,0.18765 0.0449,0.28094 0,0 0,0 0,0 0.005,0.0243 0.009,0.0487 0.0121,0.073 0.001,0.009 0.003,0.0173 0.005,0.0259 0.002,-0.009 0.005,-0.0173 0.007,-0.0252 0.007,-0.0238 0.0138,-0.0473 0.02,-0.0709 0,0 0,-2e-5 0,-2e-5 0.0259,-0.0906 0.0526,-0.18094 0.0801,-0.27148 0,0 0,0 0,0 v 0 c 0.10114,-0.33538 0.20793,-0.66869 0.31879,-1.00435 v 0 c 0.3763,-1.13915 0.79189,-2.27474 1.24659,-3.41934 v 0 c 1.2669,-3.17663 2.81817,-6.4001 4.83978,-9.16679 v 0 c 0,0 0,0 0,0 1.38986,-1.89448 3.06783,-3.61368 4.93332,-4.95866 1.18364,-0.8538 2.44783,-1.56101 3.78279,-2.07767 5.24526,-2.19872 12.05146,-1.77295 17.73075,-1.18851 -4.91544,-3.03437 -11.88231,-5.48565 -19.29202,-3.35489 -1.84375,0.57536 -3.57175,1.44773 -5.13116,2.55824 z"
       id="path28612" />
    <path
       style="opacity:1;fill:#ffffff;fill-opacity:1;stroke:none;stroke-width:1.26767;stroke-opacity:1"
       d="m 260.51159,-367.17176 c -6.55087,5.21414 -10.89386,12.0751 -13.48631,18.41508 5.20518,-4.39643 10.7011,-9.83897 16.59817,-14.4873 -7e-5,7e-5 0.10925,-0.0861 0.10925,-0.086 3.27201,-2.53925 6.43353,-4.80665 9.96533,-6.11913 2.01706,-0.78162 4.10531,-1.25896 6.25979,-1.09064 0.83136,0.1848 1.68647,0.36817 2.5616,0.55054 2.8e-4,-3.8e-4 5.4e-4,-5.5e-4 5.4e-4,-10e-4 -2.2e-4,3.8e-4 -4.7e-4,5.6e-4 -5.4e-4,10e-4 -0.65814,-0.53409 -1.37489,-1.08433 -2.14562,-1.64812 -2.11376,-1.09952 -4.7659,-1.48771 -7.45585,-1.18038 -4.51756,0.54485 -8.72715,2.70868 -12.28671,5.55121 -0.04,0.0316 -0.0797,0.0632 -0.11961,0.0948 z"
       id="path28662" />
    <path
       style="opacity:1;fill:#ffffff;fill-opacity:1;stroke:none;stroke-width:0;stroke-miterlimit:4;stroke-dasharray:none;stroke-opacity:1"
       d="m 95.309975,-69.624368 c -0.26696,-2.44881 -0.642503,-4.87083 -1.109869,-7.24455 -1.667798,-6.99937 -3.817529,-13.51588 -6.267446,-18.98749 -0.369675,5.98302 -0.100281,12.78922 0.789126,19.87138 0.199284,2.34511 0.431673,4.71128 0.681131,7.06513 0.364031,3.34323 0.782137,6.83608 1.181239,10.0832 0.800501,6.61144 1.420359,10.75342 1.808416,16.543456 2.118974,-4.802385 3.133688,-10.510866 3.332765,-16.761556 0.113916,-3.48465 -0.03435,-7.02871 -0.415362,-10.56957 z"
       id="path31521" />
    <path
       style="opacity:1;fill:#ffffff;fill-opacity:1;stroke:none;stroke-width:0;stroke-miterlimit:4;stroke-dasharray:none;stroke-opacity:1"
       d="m 205.46849,-38.040968 c 0.72668,-3.541128 -0.1512,-6.883301 -1.86092,-9.644001 -2.09747,2.449848 -3.38863,5.555317 -3.9685,8.463176 -0.34608,1.822223 -0.45313,3.63768 -0.46868,5.499377 0,0 0,0 0,0 -0.0281,0.847794 0.10926,1.614845 -0.0483,2.441322 -0.0343,0.185994 -0.0692,0.370278 -0.15309,0.550904 0,0 0,0 0,0 -0.0324,0.06438 -0.057,0.126171 -0.11047,0.181265 0,0 0,0 0,0 -0.001,-0.0069 -0.003,-0.01553 -0.005,-0.02261 0.001,0.0086 0.003,0.01553 0.005,0.0233 0,0 0,0 0,0 0.0701,0.02952 0.15534,0.03625 0.22846,0.04505 0,0 0,0 0,0 0.22434,0.01864 0.46602,-0.01726 0.69021,-0.07318 0.9945,-0.243556 1.93173,-0.944035 2.62105,-1.660307 0,0 0,0 0,0 1.56399,-1.552432 2.61416,-3.62641 3.07008,-5.804603 z"
       id="path31571" />
  </g>
</svg>
